<svg width="41" height="41" viewBox="0 0 41 41" fill="none" xmlns="http://www.w3.org/2000/svg">
<path d="M9.99383 29.2125C11.4459 28.1021 13.0688 27.2266 14.8626 26.5859C16.6563 25.9453 18.5355 25.625 20.5001 25.625C22.4647 25.625 24.3438 25.9453 26.1376 26.5859C27.9313 27.2266 29.5542 28.1021 31.0063 29.2125C32.0029 28.0451 32.7787 26.7212 33.3339 25.2406C33.8891 23.7601 34.1667 22.1799 34.1667 20.5C34.1667 16.7132 32.8357 13.4887 30.1735 10.8266C27.5114 8.16441 24.2869 6.83334 20.5001 6.83334C16.7133 6.83334 13.4888 8.16441 10.8266 10.8266C8.16449 13.4887 6.83341 16.7132 6.83341 20.5C6.83341 22.1799 7.11102 23.7601 7.66623 25.2406C8.22144 26.7212 8.9973 28.0451 9.99383 29.2125ZM20.5001 22.2083C18.8202 22.2083 17.4037 21.6318 16.2506 20.4787C15.0975 19.3255 14.5209 17.909 14.5209 16.2292C14.5209 14.5493 15.0975 13.1328 16.2506 11.9797C17.4037 10.8266 18.8202 10.25 20.5001 10.25C22.1799 10.25 23.5964 10.8266 24.7496 11.9797C25.9027 13.1328 26.4792 14.5493 26.4792 16.2292C26.4792 17.909 25.9027 19.3255 24.7496 20.4787C23.5964 21.6318 22.1799 22.2083 20.5001 22.2083ZM20.5001 37.5833C18.1369 37.5833 15.9161 37.1349 13.8376 36.238C11.7591 35.3412 9.95112 34.124 8.41362 32.5865C6.87612 31.049 5.65894 29.241 4.76206 27.1625C3.86519 25.084 3.41675 22.8632 3.41675 20.5C3.41675 18.1368 3.86519 15.916 4.76206 13.8375C5.65894 11.759 6.87612 9.95105 8.41362 8.41355C9.95112 6.87605 11.7591 5.65886 13.8376 4.76198C15.9161 3.86511 18.1369 3.41667 20.5001 3.41667C22.8633 3.41667 25.0841 3.86511 27.1626 4.76198C29.2411 5.65886 31.049 6.87605 32.5865 8.41355C34.124 9.95105 35.3412 11.759 36.2381 13.8375C37.135 15.916 37.5834 18.1368 37.5834 20.5C37.5834 22.8632 37.135 25.084 36.2381 27.1625C35.3412 29.241 34.124 31.049 32.5865 32.5865C31.049 34.124 29.2411 35.3412 27.1626 36.238C25.0841 37.1349 22.8633 37.5833 20.5001 37.5833ZM20.5001 34.1667C22.0091 34.1667 23.4327 33.946 24.7709 33.5047C26.1091 33.0634 27.3334 32.4299 28.4438 31.6042C27.3334 30.7785 26.1091 30.145 24.7709 29.7037C23.4327 29.2623 22.0091 29.0417 20.5001 29.0417C18.9911 29.0417 17.5674 29.2623 16.2292 29.7037C14.8911 30.145 13.6667 30.7785 12.5563 31.6042C13.6667 32.4299 14.8911 33.0634 16.2292 33.5047C17.5674 33.946 18.9911 34.1667 20.5001 34.1667ZM20.5001 18.7917C21.2404 18.7917 21.8525 18.5497 22.3365 18.0656C22.8206 17.5816 23.0626 16.9694 23.0626 16.2292C23.0626 15.4889 22.8206 14.8767 22.3365 14.3927C21.8525 13.9087 21.2404 13.6667 20.5001 13.6667C19.7598 13.6667 19.1477 13.9087 18.6636 14.3927C18.1796 14.8767 17.9376 15.4889 17.9376 16.2292C17.9376 16.9694 18.1796 17.5816 18.6636 18.0656C19.1477 18.5497 19.7598 18.7917 20.5001 18.7917Z" fill="white"/>
</svg>
